<?xml version="1.0" encoding="UTF-8" standalone="no"?>
<!DOCTYPE svg PUBLIC "-//W3C//DTD SVG 1.1//EN" "http://www.w3.org/Graphics/SVG/1.1/DTD/svg11.dtd">
<svg width="100%" height="100%" viewBox="0 0 512 512" version="1.1" xmlns="http://www.w3.org/2000/svg" xmlns:xlink="http://www.w3.org/1999/xlink" xml:space="preserve" xmlns:serif="http://www.serif.com/" style="fill-rule:evenodd;clip-rule:evenodd;stroke-linejoin:round;stroke-miterlimit:2;">
    <g transform="matrix(1,0,0,1,145,-6)">
        <path d="M50,50C50,50 53,56.667 53,60C53,63.333 47.5,66.667 47.5,70C47.5,73.333 50,80 50,80"/>
        <path d="M48.453,50.696C48.069,49.842 48.45,48.837 49.304,48.453C50.158,48.069 51.163,48.45 51.547,49.304C51.547,49.304 53.777,52.876 55.135,56.207C55.694,57.58 55.977,58.919 56.107,60C56.224,61.254 55.852,62.536 55.212,63.834C54.513,65.251 53.319,66.686 52.188,68.035C51.782,68.519 51.334,68.938 51.017,69.408C50.909,69.569 50.767,69.696 50.694,69.858C50.662,69.929 50.53,69.927 50.521,70C50.407,70.934 50.434,72.184 50.587,73.468C50.941,76.435 51.588,79.404 51.588,79.404C51.917,80.281 51.472,81.26 50.596,81.588C49.719,81.917 48.74,81.472 48.412,80.596C48.412,80.596 46.881,77.692 45.711,74.688C45.055,73.003 44.639,71.305 44.479,70C44.351,68.758 44.727,67.493 45.343,66.197C46.021,64.77 47.187,63.319 48.293,61.95C48.688,61.463 49.119,61.032 49.428,60.561C49.531,60.403 49.666,60.277 49.736,60.118C49.764,60.056 49.886,60.064 49.893,60C50.007,59.098 49.949,57.883 49.747,56.633C49.268,53.666 48.453,50.696 48.453,50.696Z" style="fill:white;"/>
    </g>
    <g transform="matrix(1,0,0,1,170.5,-20)">
        <path d="M50,50C50,50 53,56.667 53,60C53,63.333 47.5,66.667 47.5,70C47.5,73.333 50,80 50,80"/>
        <path d="M48.453,50.696C48.069,49.842 48.45,48.837 49.304,48.453C50.158,48.069 51.163,48.45 51.547,49.304C51.547,49.304 53.777,52.876 55.135,56.207C55.694,57.58 55.977,58.919 56.107,60C56.224,61.254 55.852,62.536 55.212,63.834C54.513,65.251 53.319,66.686 52.188,68.035C51.782,68.519 51.334,68.938 51.017,69.408C50.909,69.569 50.767,69.696 50.694,69.858C50.662,69.929 50.53,69.927 50.521,70C50.407,70.934 50.434,72.184 50.587,73.468C50.941,76.435 51.588,79.404 51.588,79.404C51.917,80.281 51.472,81.26 50.596,81.588C49.719,81.917 48.74,81.472 48.412,80.596C48.412,80.596 46.881,77.692 45.711,74.688C45.055,73.003 44.639,71.305 44.479,70C44.351,68.758 44.727,67.493 45.343,66.197C46.021,64.77 47.187,63.319 48.293,61.95C48.688,61.463 49.119,61.032 49.428,60.561C49.531,60.403 49.666,60.277 49.736,60.118C49.764,60.056 49.886,60.064 49.893,60C50.007,59.098 49.949,57.883 49.747,56.633C49.268,53.666 48.453,50.696 48.453,50.696Z" style="fill:white;"/>
    </g>
    <g transform="matrix(1,0,0,1,145,-6)">
        <path d="M50,50C50,50 53,56.667 53,60C53,63.333 47.5,66.667 47.5,70C47.5,73.333 50,80 50,80"/>
        <path d="M48.453,50.696C48.069,49.842 48.45,48.837 49.304,48.453C50.158,48.069 51.163,48.45 51.547,49.304C51.547,49.304 53.777,52.876 55.135,56.207C55.694,57.58 55.977,58.919 56.107,60C56.224,61.254 55.852,62.536 55.212,63.834C54.513,65.251 53.319,66.686 52.188,68.035C51.782,68.519 51.334,68.938 51.017,69.408C50.909,69.569 50.767,69.696 50.694,69.858C50.662,69.929 50.53,69.927 50.521,70C50.407,70.934 50.434,72.184 50.587,73.468C50.941,76.435 51.588,79.404 51.588,79.404C51.917,80.281 51.472,81.26 50.596,81.588C49.719,81.917 48.74,81.472 48.412,80.596C48.412,80.596 46.881,77.692 45.711,74.688C45.055,73.003 44.639,71.305 44.479,70C44.351,68.758 44.727,67.493 45.343,66.197C46.021,64.77 47.187,63.319 48.293,61.95C48.688,61.463 49.119,61.032 49.428,60.561C49.531,60.403 49.666,60.277 49.736,60.118C49.764,60.056 49.886,60.064 49.893,60C50.007,59.098 49.949,57.883 49.747,56.633C49.268,53.666 48.453,50.696 48.453,50.696Z" style="fill:white;"/>
    </g>
    <g transform="matrix(1,0,0,1,170.5,-20)">
        <path d="M50,50C50,50 53,56.667 53,60C53,63.333 47.5,66.667 47.5,70C47.5,73.333 50,80 50,80"/>
        <path d="M48.453,50.696C48.069,49.842 48.45,48.837 49.304,48.453C50.158,48.069 51.163,48.45 51.547,49.304C51.547,49.304 53.777,52.876 55.135,56.207C55.694,57.58 55.977,58.919 56.107,60C56.224,61.254 55.852,62.536 55.212,63.834C54.513,65.251 53.319,66.686 52.188,68.035C51.782,68.519 51.334,68.938 51.017,69.408C50.909,69.569 50.767,69.696 50.694,69.858C50.662,69.929 50.53,69.927 50.521,70C50.407,70.934 50.434,72.184 50.587,73.468C50.941,76.435 51.588,79.404 51.588,79.404C51.917,80.281 51.472,81.26 50.596,81.588C49.719,81.917 48.74,81.472 48.412,80.596C48.412,80.596 46.881,77.692 45.711,74.688C45.055,73.003 44.639,71.305 44.479,70C44.351,68.758 44.727,67.493 45.343,66.197C46.021,64.77 47.187,63.319 48.293,61.95C48.688,61.463 49.119,61.032 49.428,60.561C49.531,60.403 49.666,60.277 49.736,60.118C49.764,60.056 49.886,60.064 49.893,60C50.007,59.098 49.949,57.883 49.747,56.633C49.268,53.666 48.453,50.696 48.453,50.696Z" style="fill:white;"/>
    </g>
    <g transform="matrix(1,-1.22465e-16,-1.22465e-16,-1,249,114)">
        <path d="M50,50C50,50 53,56.667 53,60C53,63.333 47.5,66.667 47.5,70C47.5,73.333 50,80 50,80"/>
        <path d="M51.547,49.304C51.163,48.45 50.158,48.069 49.304,48.453C48.45,48.837 48.069,49.842 48.453,50.696C48.453,50.696 49.268,53.666 49.747,56.633C49.949,57.883 50.007,59.098 49.893,60C49.886,60.064 49.764,60.056 49.736,60.118C49.666,60.277 49.531,60.403 49.428,60.561C49.119,61.032 48.688,61.463 48.293,61.95C47.187,63.319 46.021,64.77 45.343,66.197C44.727,67.493 44.351,68.758 44.479,70C44.639,71.305 45.055,73.003 45.711,74.688C46.881,77.692 48.412,80.596 48.412,80.596C48.74,81.472 49.719,81.917 50.596,81.588C51.472,81.26 51.917,80.281 51.588,79.404C51.588,79.404 50.941,76.435 50.587,73.468C50.434,72.184 50.407,70.934 50.521,70C50.53,69.927 50.662,69.929 50.694,69.858C50.767,69.696 50.909,69.569 51.017,69.408C51.334,68.938 51.782,68.519 52.188,68.035C53.319,66.686 54.513,65.251 55.212,63.834C55.852,62.536 56.224,61.254 56.107,60C55.977,58.919 55.694,57.58 55.135,56.207C53.777,52.876 51.547,49.304 51.547,49.304Z" style="fill:white;"/>
    </g>
    <g transform="matrix(1,-1.22465e-16,-1.22465e-16,-1,274.5,128)">
        <path d="M50,50C50,50 53,56.667 53,60C53,63.333 47.5,66.667 47.5,70C47.5,73.333 50,80 50,80"/>
        <path d="M51.547,49.304C51.163,48.45 50.158,48.069 49.304,48.453C48.45,48.837 48.069,49.842 48.453,50.696C48.453,50.696 49.268,53.666 49.747,56.633C49.949,57.883 50.007,59.098 49.893,60C49.886,60.064 49.764,60.056 49.736,60.118C49.666,60.277 49.531,60.403 49.428,60.561C49.119,61.032 48.688,61.463 48.293,61.95C47.187,63.319 46.021,64.77 45.343,66.197C44.727,67.493 44.351,68.758 44.479,70C44.639,71.305 45.055,73.003 45.711,74.688C46.881,77.692 48.412,80.596 48.412,80.596C48.74,81.472 49.719,81.917 50.596,81.588C51.472,81.26 51.917,80.281 51.588,79.404C51.588,79.404 50.941,76.435 50.587,73.468C50.434,72.184 50.407,70.934 50.521,70C50.53,69.927 50.662,69.929 50.694,69.858C50.767,69.696 50.909,69.569 51.017,69.408C51.334,68.938 51.782,68.519 52.188,68.035C53.319,66.686 54.513,65.251 55.212,63.834C55.852,62.536 56.224,61.254 56.107,60C55.977,58.919 55.694,57.58 55.135,56.207C53.777,52.876 51.547,49.304 51.547,49.304Z" style="fill:white;"/>
    </g>
    <g transform="matrix(1.0241,0,0,1.37097,134.645,-78)">
        <path d="M119.758,137.127L157.566,165.369C151.891,177.392 136.53,186 118.5,186C101.161,186 86.292,178.04 80.108,166.745L119.758,137.127Z" style="fill:white;"/>
    </g>
    <g transform="matrix(0.962861,-0.962861,1.28565,1.28565,74.4545,89.3682)">
        <path d="M121,63C121,60.083 119.453,57.285 116.698,55.222C113.944,53.159 110.208,52 106.312,52C92.134,52 70.788,52 56.63,52C48.55,52 42,56.905 42,62.957C42,68.471 42,74 42,74L106.312,74C110.208,74 113.944,72.841 116.698,70.778C119.453,68.715 121,65.917 121,63C121,63 121,63 121,63Z" style="fill:white;"/>
    </g>
    <g transform="matrix(0.858676,0.858676,-1.17851,1.17851,230.582,-165.336)">
        <path d="M220,88.153C220,84.93 218.243,81.839 215.115,79.56C211.987,77.28 207.744,76 203.32,76C190.87,76 169.886,75.908 169.886,75.908C169.886,75.908 175.739,79.585 176,84.182C176.232,88.261 176,100 176,100L220,100L220,88.153Z" style="fill:white;"/>
    </g>
    <g transform="matrix(1.77778,0,0,1.17647,33.7778,56.4706)">
        <path d="M109.418,107.675C112.275,112.143 118.183,115.2 125,115.2C131.817,115.2 137.725,112.143 140.582,107.675C157.751,113.617 170,129.218 170,147.5L80,147.5C80,129.218 92.249,113.617 109.418,107.675Z" style="fill:white;"/>
    </g>
    <g transform="matrix(1,0,0,1,1.4703,20.808)">
        <g transform="matrix(76.3889,0,0,76.3889,138.044,339.192)">
        </g>
        <g transform="matrix(76.3889,0,0,76.3889,155.332,339.192)">
        </g>
        <g transform="matrix(76.3889,0,0,76.3889,435.506,339.192)">
        </g>
        <text x="71.95px" y="339.192px" style="font-family:'SegoeUI-Semilight', 'Segoe UI', sans-serif;font-weight:350;font-size:76.389px;fill:white;">Mĳn Sauna</text>
    </g>
</svg>
