<?xml version="1.0" encoding="UTF-8" standalone="no"?>
<svg
   xmlns:dc="http://purl.org/dc/elements/1.1/"
   xmlns:cc="http://creativecommons.org/ns#"
   xmlns:rdf="http://www.w3.org/1999/02/22-rdf-syntax-ns#"
   xmlns:svg="http://www.w3.org/2000/svg"
   xmlns="http://www.w3.org/2000/svg"
   xmlns:sodipodi="http://sodipodi.sourceforge.net/DTD/sodipodi-0.dtd"
   xmlns:inkscape="http://www.inkscape.org/namespaces/inkscape"
   version="1.2"
   x="0px"
   y="0px"
   viewBox="0 0 200 200"
   xml:space="preserve"
   id="svg3897"
   sodipodi:docname="infrared.svg"
   width="200"
   height="200"
   inkscape:version="0.92.5 (2060ec1f9f, 2020-04-08)"><metadata
     id="metadata3903"><rdf:RDF><cc:Work
         rdf:about=""><dc:format>image/svg+xml</dc:format><dc:type
           rdf:resource="http://purl.org/dc/dcmitype/StillImage" /><dc:title></dc:title></cc:Work></rdf:RDF></metadata><defs
     id="defs3901" /><sodipodi:namedview
     pagecolor="#ffffff"
     bordercolor="#666666"
     borderopacity="1"
     objecttolerance="10"
     gridtolerance="10"
     guidetolerance="10"
     inkscape:pageopacity="0"
     inkscape:pageshadow="2"
     inkscape:window-width="1920"
     inkscape:window-height="1027"
     id="namedview3899"
     showgrid="false"
     inkscape:zoom="2.6700352"
     inkscape:cx="8.5807458"
     inkscape:cy="70.084777"
     inkscape:window-x="1912"
     inkscape:window-y="-8"
     inkscape:window-maximized="1"
     inkscape:current-layer="svg3897" /><g
     id="g3912"
     transform="matrix(2,0,0,2,0,50)"><path
       inkscape:connector-curvature="0"
       id="path3879"
       d="M 85,10 H 15 C 9.477,10 5,14.477 5,20 v 20 c 0,5.523 4.477,10 10,10 H 40 V 62.5 H 25 V 70 H 75 V 62.5 H 60 V 50 h 25 c 5.523,0 10,-4.477 10,-10 V 20 C 95,14.477 90.523,10 85,10 Z M 17.5,42.5 H 15 c -1.378,0 -2.5,-1.122 -2.5,-2.5 V 20 c 0,-1.379 1.122,-2.5 2.5,-2.5 h 2.5 z M 55,62.5 H 45 V 50 h 10 z m 22.5,-20 h -55 v -25 h 55 z m 10,-2.5 c 0,1.378 -1.122,2.5 -2.5,2.5 h -2.5 v -25 H 85 c 1.378,0 2.5,1.121 2.5,2.5 z" /><path
       inkscape:connector-curvature="0"
       id="path3881"
       d="m 67.5,-17.5 c 0,1.378 -1.122,2.5 -2.5,2.5 -6.893,0 -12.5,5.607 -12.5,12.5 V 5 h 5 v -7.5 c 0,-4.136 3.364,-7.5 7.5,-7.5 4.136,0 7.5,-3.364 7.5,-7.5 V -20 h -5 z" /><path
       inkscape:connector-curvature="0"
       id="path3883"
       d="M 62.5,2.5 V 5 h 5 V 2.5 C 67.5,1.122 68.622,0 70,0 76.893,0 82.5,-5.607 82.5,-12.5 V -20 h -5 v 7.5 c 0,4.136 -3.364,7.5 -7.5,7.5 -4.136,0 -7.5,3.364 -7.5,7.5 z" /><path
       inkscape:connector-curvature="0"
       id="path3885"
       d="m 32.5,-17.5 c 0,1.378 -1.122,2.5 -2.5,2.5 -6.893,0 -12.5,5.607 -12.5,12.5 V 5 h 5 v -7.5 c 0,-4.136 3.364,-7.5 7.5,-7.5 4.136,0 7.5,-3.364 7.5,-7.5 V -20 h -5 z" /><path
       inkscape:connector-curvature="0"
       id="path3887"
       d="M 27.5,2.5 V 5 h 5 V 2.5 C 32.5,1.122 33.622,0 35,0 41.893,0 47.5,-5.607 47.5,-12.5 V -20 h -5 v 7.5 c 0,4.136 -3.364,7.5 -7.5,7.5 -4.136,0 -7.5,3.364 -7.5,7.5 z" /><rect
       id="rect3889"
       height="5"
       width="45"
       y="32.5"
       x="27.5" /><rect
       id="rect3891"
       height="5"
       width="45"
       y="22.5"
       x="27.5" /></g></svg>