<?xml version="1.0" encoding="UTF-8" standalone="no"?>
<svg
   xmlns:dc="http://purl.org/dc/elements/1.1/"
   xmlns:cc="http://creativecommons.org/ns#"
   xmlns:rdf="http://www.w3.org/1999/02/22-rdf-syntax-ns#"
   xmlns:svg="http://www.w3.org/2000/svg"
   xmlns="http://www.w3.org/2000/svg"
   xmlns:sodipodi="http://sodipodi.sourceforge.net/DTD/sodipodi-0.dtd"
   xmlns:inkscape="http://www.inkscape.org/namespaces/inkscape"
   version="1.1"
   x="0px"
   y="0px"
   viewBox="0 0 200 200"
   xml:space="preserve"
   id="svg14"
   width="200"
   height="200"
   inkscape:version="0.92.5 (2060ec1f9f, 2020-04-08)"
   sodipodi:docname="infrared_2.svg"><metadata
     id="metadata20"><rdf:RDF><cc:Work
         rdf:about=""><dc:format>image/svg+xml</dc:format><dc:type
           rdf:resource="http://purl.org/dc/dcmitype/StillImage" /><dc:title /></cc:Work></rdf:RDF></metadata><defs
     id="defs18" /><sodipodi:namedview
     pagecolor="#ffffff"
     bordercolor="#666666"
     borderopacity="1"
     objecttolerance="10"
     gridtolerance="10"
     guidetolerance="10"
     inkscape:pageopacity="0"
     inkscape:pageshadow="2"
     inkscape:window-width="1920"
     inkscape:window-height="1027"
     id="namedview16"
     showgrid="false"
     inkscape:zoom="1.888"
     inkscape:cx="-3.8363363"
     inkscape:cy="6.7531583"
     inkscape:window-x="-8"
     inkscape:window-y="-8"
     inkscape:window-maximized="1"
     inkscape:current-layer="svg14" /><path
     transform="matrix(2.9407921,0,0,3.5832305,-47.039603,-79.161524)"
     style="fill:#000000;fill-opacity:1;stroke:none;stroke-opacity:1"
     d="M 45.051,60.444 27.274,39.556 36.452,28.772 31.883,24.883 19.396,39.556 l 17.776,20.888 -9.178,10.784 4.569,3.889 z"
     id="polygon2" /><path
     transform="matrix(2.9407921,0,0,3.5832305,-47.039603,-79.161524)"
     style=""
     d="M 45.051,39.556 54.229,28.772 49.66,24.883 37.172,39.556 54.949,60.444 45.771,71.228 50.34,75.117 62.828,60.444 Z"
     id="polygon4" /><path
     transform="matrix(2.9407921,0,0,3.5832305,-47.039603,-79.161524)"
     style=""
     d="m 72.726,60.444 -9.179,10.784 4.57,3.889 L 80.604,60.444 62.828,39.556 72.005,28.772 67.436,24.883 54.949,39.556 Z"
     id="polygon6" /></svg>