<svg xmlns="http://www.w3.org/2000/svg" viewBox="0 0 30 35" x="0px" y="0px"><path fill="#000" fill-rule="evenodd" d="M5.02 6.196l-1-5L5.98.803l1 5-1.96.393zm11.96 0l-1.96-.393 1-5 1.96.393-1 5zM10 6h2V0h-2v6zm-5.48 6.564l1.225 8.577c.07.49.495.86.99.86H9v2H6.735a3.015 3.015 0 0 1-2.97-2.576L2.131 10H0V8h3.868l.36 2.528c2.346-.862 5.21-.665 7.296.62 1.704 1.051 4.303 1.11 6.13.198L18.132 8H22v2h-2.132l-1.164 8.141-1.98-.283.605-4.237a8.802 8.802 0 0 1-2.543.385c-1.531 0-3.062-.385-4.31-1.155-1.652-1.017-4.142-1.107-5.957-.287zM20 23.838A3.158 3.158 0 0 1 17 26a3.16 3.16 0 0 1-3-2.162L13.387 22h7.226L20 23.838zM28.882 8a4.994 4.994 0 0 0-4.743 3.42L21.28 20H10.613l1.49 4.47A5.153 5.153 0 0 0 17 28a5.153 5.153 0 0 0 4.897-3.53l4.14-12.419a2.997 2.997 0 0 1 2.845-2.05H30V8h-1.118z"/></svg>