<svg xmlns="http://www.w3.org/2000/svg" xmlns:xlink="http://www.w3.org/1999/xlink" version="1.1" x="0px" y="0px" viewBox="0 0 100 100" enable-background="new 0 0 100 100" xml:space="preserve"><path d="M77.785,42.242c-0.162-0.341-0.506-0.558-0.883-0.558H56.165L65.619,6.23c0.119-0.446-0.09-0.915-0.502-1.124  c-0.407-0.209-0.912-0.102-1.204,0.257l-41.575,51.36c-0.238,0.291-0.285,0.694-0.123,1.036c0.163,0.341,0.506,0.558,0.883,0.558  h20.738L34.382,93.77c-0.12,0.446,0.089,0.916,0.501,1.125C35.023,94.966,35.175,95,35.326,95c0.288,0,0.57-0.127,0.76-0.361  l41.577-51.361C77.898,42.986,77.947,42.583,77.785,42.242z"/></svg>