<?xml version="1.0" encoding="UTF-8" standalone="no"?>
<svg
   xmlns:dc="http://purl.org/dc/elements/1.1/"
   xmlns:cc="http://creativecommons.org/ns#"
   xmlns:rdf="http://www.w3.org/1999/02/22-rdf-syntax-ns#"
   xmlns:svg="http://www.w3.org/2000/svg"
   xmlns="http://www.w3.org/2000/svg"
   xmlns:sodipodi="http://sodipodi.sourceforge.net/DTD/sodipodi-0.dtd"
   xmlns:inkscape="http://www.inkscape.org/namespaces/inkscape"
   version="1.1"
   x="0px"
   y="0px"
   viewBox="0 0 200 200"
   enable-background="new 0 0 100 100"
   xml:space="preserve"
   id="svg3769"
   sodipodi:docname="power.svg"
   width="200"
   height="200"
   inkscape:version="0.92.5 (2060ec1f9f, 2020-04-08)"><metadata
     id="metadata3775"><rdf:RDF><cc:Work
         rdf:about=""><dc:format>image/svg+xml</dc:format><dc:type
           rdf:resource="http://purl.org/dc/dcmitype/StillImage" /><dc:title></dc:title></cc:Work></rdf:RDF></metadata><defs
     id="defs3773" /><sodipodi:namedview
     pagecolor="#ffffff"
     bordercolor="#666666"
     borderopacity="1"
     objecttolerance="10"
     gridtolerance="10"
     guidetolerance="10"
     inkscape:pageopacity="0"
     inkscape:pageshadow="2"
     inkscape:window-width="1920"
     inkscape:window-height="1027"
     id="namedview3771"
     showgrid="false"
     inkscape:zoom="2.36"
     inkscape:cx="50"
     inkscape:cy="50"
     inkscape:window-x="1912"
     inkscape:window-y="-8"
     inkscape:window-maximized="1"
     inkscape:current-layer="svg3769" /><path
     d="m 154.81309,84.484132 c -0.31959,-0.681999 -0.99821,-1.115999 -1.74194,-1.115999 h -40.90871 l 18.65029,-70.907911 c 0.23475,-0.891999 -0.17755,-1.829998 -0.99032,-2.247997 -0.80291,-0.4179997 -1.79914,-0.204 -2.37518,0.513999 L 45.430554,113.4461 c -0.469512,0.58199 -0.56223,1.38799 -0.242647,2.07199 0.321557,0.682 0.998208,1.116 1.74193,1.116 H 87.840525 L 69.190238,187.54 c -0.236729,0.892 0.175575,1.832 0.988344,2.25 0.276183,0.142 0.57604,0.21 0.873923,0.21 0.568149,0 1.124462,-0.254 1.499283,-0.722 L 154.57241,86.556129 c 0.46359,-0.583999 0.56026,-1.389998 0.24068,-2.071997 z"
     id="path3767"
     inkscape:connector-curvature="0"
     style="stroke-width:1.98632216" /></svg>