<?xml version="1.0" encoding="UTF-8" standalone="no"?>
<svg
   xmlns:dc="http://purl.org/dc/elements/1.1/"
   xmlns:cc="http://creativecommons.org/ns#"
   xmlns:rdf="http://www.w3.org/1999/02/22-rdf-syntax-ns#"
   xmlns:svg="http://www.w3.org/2000/svg"
   xmlns="http://www.w3.org/2000/svg"
   xmlns:sodipodi="http://sodipodi.sourceforge.net/DTD/sodipodi-0.dtd"
   xmlns:inkscape="http://www.inkscape.org/namespaces/inkscape"
   viewBox="0 0 200 200"
   version="1.1"
   x="0px"
   y="0px"
   id="svg3946"
   sodipodi:docname="sauna.svg"
   width="200"
   height="200"
   inkscape:version="0.92.5 (2060ec1f9f, 2020-04-08)">
  <metadata
     id="metadata3952">
    <rdf:RDF>
      <cc:Work
         rdf:about="">
        <dc:format>image/svg+xml</dc:format>
        <dc:type
           rdf:resource="http://purl.org/dc/dcmitype/StillImage" />
        <dc:title>heater core</dc:title>
      </cc:Work>
    </rdf:RDF>
  </metadata>
  <defs
     id="defs3950" />
  <sodipodi:namedview
     pagecolor="#ffffff"
     bordercolor="#666666"
     borderopacity="1"
     objecttolerance="10"
     gridtolerance="10"
     guidetolerance="10"
     inkscape:pageopacity="0"
     inkscape:pageshadow="2"
     inkscape:window-width="1920"
     inkscape:window-height="1027"
     id="namedview3948"
     showgrid="false"
     inkscape:zoom="2.0227539"
     inkscape:cx="22.384456"
     inkscape:cy="80.818427"
     inkscape:window-x="1912"
     inkscape:window-y="-8"
     inkscape:window-maximized="1"
     inkscape:current-layer="svg3946" />
  <title
     id="title3934">heater core</title>
  <desc
     id="desc3936">Created with Sketch.</desc>
  <g
     id="g3940"
     style="fill:none;fill-rule:evenodd;stroke:none;stroke-width:1"
     transform="matrix(5.1428571,0,0,5.5384476,10,7.2312292)">
    <path
       d="m 27,19 h -1 v -1 -4 -1 h 1 V 11.00552 C 27,8.7933325 28.795356,7 31,7 c 2.209139,0 4,1.7870853 4,4.00552 V 28.99448 C 35,31.206667 33.204644,33 31,33 28.792694,33 27.002972,31.215879 27.000004,29 H 26 v -1 -4 -1 h 1 z m -9,0 h -1 v -1 -4 -1 h 1 V 11.00552 C 18,8.7933325 19.795356,7 22,7 c 2.209139,0 4,1.7870853 4,4.00552 V 28.99448 C 26,31.206667 24.204644,33 22,33 19.792694,33 18.002972,31.215879 18.000004,29 H 17 v -1 -4 -1 h 1 z M 9,19 H 8 V 18 14 13 H 9 V 11.00552 C 9,8.7933325 10.795356,7 13,7 c 2.209139,0 4,1.7870853 4,4.00552 V 28.99448 C 17,31.206667 15.204644,33 13,33 10.792694,33 9.0029716,31.215879 9.0000037,29 H 8 V 28 24 23 H 9 Z M 25.896109,3.4887623 c 0.06999,0.2320612 0.109141,0.4622503 0.103331,0.6634733 -0.0038,0.1298979 -0.03993,0.2172706 -0.178363,0.4480409 -0.0037,0.00612 -0.0037,0.00612 -0.0074,0.012299 -0.222772,0.3714353 -0.312886,0.595453 -0.313692,0.9529634 -8.18e-4,0.3626154 0.05816,0.5745246 0.288017,1.1266321 0.106133,0.254932 0.398834,0.3755572 0.653766,0.2694238 0.254932,-0.1061334 0.375557,-0.3988347 0.269424,-0.6537667 -0.182804,-0.4390934 -0.211655,-0.5427507 -0.21121,-0.7400344 2.88e-4,-0.1274376 0.0349,-0.2134927 0.171279,-0.4408744 0.0036,-0.00607 0.0036,-0.00607 0.0073,-0.012218 0.220951,-0.3683196 0.310322,-0.5841673 0.320412,-0.9336036 0.0093,-0.3232343 -0.04701,-0.654488 -0.145514,-0.9810951 C 26.799403,3.0206064 26.744423,2.8797127 26.704308,2.792015 26.589441,2.5408971 26.292752,2.4304439 26.041634,2.5453108 25.790516,2.6601778 25.680063,2.9568671 25.79493,3.207985 c 0.02248,0.049146 0.06139,0.1488651 0.101179,0.2807773 z M 4,7 c 2.209139,0 4,1.7870853 4,4.00552 V 28.99448 C 8,31.206667 6.2046438,33 4,33 1.790861,33 0,31.212915 0,28.99448 V 11.00552 C 0,8.7933325 1.7953561,7 4,7 Z M 2,28.99448 C 2,30.106322 2.8934084,31 4,31 5.1013567,31 6,30.100814 6,28.99448 V 11.00552 C 6,9.8936776 5.1065916,9 4,9 2.8986433,9 2,9.8991855 2,11.00552 Z m 9,0 C 11,30.106322 11.893408,31 13,31 c 1.101357,0 2,-0.899186 2,-2.00552 V 11.00552 C 15,9.8936776 14.106592,9 13,9 11.898643,9 11,9.8991855 11,11.00552 Z m 9,0 C 20,30.106322 20.893408,31 22,31 c 1.101357,0 2,-0.899186 2,-2.00552 V 11.00552 C 24,9.8936776 23.106592,9 22,9 20.898643,9 20,9.8991855 20,11.00552 Z m 9,0 C 29,30.106322 29.893408,31 31,31 c 1.101357,0 2,-0.899186 2,-2.00552 V 11.00552 C 33,9.8936776 32.106592,9 31,9 29.898643,9 29,9.8991855 29,11.00552 Z M 7.6464898,3.2000027 c -0.098507,0.3266071 -0.1548466,0.6578608 -0.1455134,0.9810951 0.01009,0.3494363 0.099461,0.565284 0.3204114,0.9336036 0.00369,0.00614 0.00369,0.00614 0.00733,0.012218 0.1363742,0.2273817 0.170991,0.3134368 0.1712783,0.4408744 4.449e-4,0.1972837 -0.028406,0.300941 -0.2112096,0.7400344 -0.1061334,0.254932 0.014492,0.5476333 0.2694238,0.6537667 C 8.3131418,7.0677286 8.6058431,6.9471034 8.7119764,6.6921714 8.94183,6.1400639 9.0008107,5.9281547 8.9999931,5.5655393 8.999187,5.2080289 8.9090731,4.9840112 8.6863014,4.6125759 c -0.00371,-0.00618 -0.00371,-0.00618 -0.00738,-0.012299 C 8.540487,4.3695062 8.5043105,4.2821335 8.5005598,4.1522356 8.4947496,3.9510126 8.5339,3.7208235 8.6038914,3.4887623 8.6436771,3.3568501 8.68259,3.2571309 8.7050704,3.207985 8.8199373,2.9568671 8.7094841,2.6601778 8.4583662,2.5453108 8.2072483,2.4304439 7.910559,2.5408971 7.795692,2.792015 7.7555772,2.8797127 7.700597,3.0206064 7.6464898,3.2000027 Z M 17.282829,1.7203565 c 0.146365,0.3812945 0.228279,0.7597145 0.215972,1.0946147 -0.0089,0.2410574 -0.09682,0.4079775 -0.396523,0.8005191 -0.0073,0.00962 -0.0073,0.00962 -0.01474,0.019305 -0.421741,0.5525009 -0.586023,0.8733828 -0.587526,1.3971032 -0.0016,0.5437122 0.109107,0.8561208 0.557413,1.7022008 0.129289,0.2440058 0.431905,0.3370018 0.675911,0.2077123 0.244006,-0.1292894 0.337002,-0.4319051 0.207712,-0.6759109 -0.377008,-0.7115215 -0.442004,-0.8950032 -0.44104,-1.2311325 6.84e-4,-0.2383405 0.08586,-0.404716 0.382415,-0.7932133 0.0073,-0.00958 0.0073,-0.00958 0.01468,-0.019223 C 18.316174,3.6734466 18.479307,3.3638774 18.49813,2.8516953 18.51611,2.3624483 18.40704,1.8586011 18.216412,1.3619882 18.111942,1.0898438 18.006488,0.87751089 17.931345,0.74843838 17.792411,0.50979208 17.486322,0.42895902 17.247676,0.56789266 17.00903,0.70682631 16.928197,1.0129153 17.06713,1.2515616 c 0.05005,0.085967 0.132379,0.2517406 0.215699,0.4687949 z"
       id="path3938"
       inkscape:connector-curvature="0"
       style="fill:#000000" />
  </g>
</svg>
