<?xml version="1.0" encoding="UTF-8" standalone="no"?>
<svg
   xmlns:dc="http://purl.org/dc/elements/1.1/"
   xmlns:cc="http://creativecommons.org/ns#"
   xmlns:rdf="http://www.w3.org/1999/02/22-rdf-syntax-ns#"
   xmlns:svg="http://www.w3.org/2000/svg"
   xmlns="http://www.w3.org/2000/svg"
   xmlns:sodipodi="http://sodipodi.sourceforge.net/DTD/sodipodi-0.dtd"
   xmlns:inkscape="http://www.inkscape.org/namespaces/inkscape"
   version="1.1"
   x="0px"
   y="0px"
   viewBox="0 0 200 200"
   enable-background="new 0 0 100 100"
   xml:space="preserve"
   id="svg14"
   sodipodi:docname="noun_Gas_37867.svg"
   width="200"
   height="200"
   inkscape:version="0.92.5 (2060ec1f9f, 2020-04-08)"><metadata
     id="metadata20"><rdf:RDF><cc:Work
         rdf:about=""><dc:format>image/svg+xml</dc:format><dc:type
           rdf:resource="http://purl.org/dc/dcmitype/StillImage" /><dc:title></dc:title></cc:Work></rdf:RDF></metadata><defs
     id="defs18" /><sodipodi:namedview
     pagecolor="#ffffff"
     bordercolor="#666666"
     borderopacity="1"
     objecttolerance="10"
     gridtolerance="10"
     guidetolerance="10"
     inkscape:pageopacity="0"
     inkscape:pageshadow="2"
     inkscape:window-width="1920"
     inkscape:window-height="1027"
     id="namedview16"
     showgrid="false"
     inkscape:zoom="2.6700352"
     inkscape:cx="82.835743"
     inkscape:cy="89.028393"
     inkscape:window-x="-8"
     inkscape:window-y="-8"
     inkscape:window-maximized="1"
     inkscape:current-layer="svg14" /><g
     id="g8"
     transform="matrix(3.0959331,0,0,2.8972871,-54.160102,-44.862084)"><path
       d="m 29.063,25.649 c -0.607,-0.305 -8.339,6.133 -8.339,10.877 -0.008,6.477 9.017,21.158 10.539,26.831 1.309,4.869 -2.218,10.712 -1.25,10.977 0.888,0.572 9.308,-8.024 9.637,-11.693 0.422,-5.836 -9.833,-22.862 -10.651,-27.263 -0.953,-5.121 0.744,-9.614 0.064,-9.729 z"
       id="path2"
       inkscape:connector-curvature="0"
       style="fill:#000000" /><path
       d="M 48.354,18.949 C 47.58,18.56 37.72,26.769 37.72,32.819 c -0.011,8.258 11.5,26.979 13.44,34.213 1.666,6.21 -2.828,13.66 -1.597,13.996 1.135,0.73 11.87,-10.23 12.291,-14.909 0.54,-7.441 -12.54,-29.152 -13.583,-34.764 -1.214,-6.532 0.949,-12.26 0.083,-12.406 z"
       id="path4"
       inkscape:connector-curvature="0"
       style="fill:#000000" /><path
       d="m 68.266,25.649 c -0.606,-0.305 -8.338,6.133 -8.338,10.877 -0.01,6.477 9.016,21.158 10.539,26.831 1.307,4.869 -2.218,10.712 -1.252,10.977 0.889,0.572 9.31,-8.024 9.637,-11.693 0.424,-5.836 -9.833,-22.862 -10.65,-27.263 -0.953,-5.121 0.744,-9.614 0.064,-9.729 z"
       id="path6"
       inkscape:connector-curvature="0"
       style="fill:#000000" /></g></svg>