<?xml version="1.0" encoding="UTF-8" standalone="no"?>
<svg
   xmlns:dc="http://purl.org/dc/elements/1.1/"
   xmlns:cc="http://creativecommons.org/ns#"
   xmlns:rdf="http://www.w3.org/1999/02/22-rdf-syntax-ns#"
   xmlns:svg="http://www.w3.org/2000/svg"
   xmlns="http://www.w3.org/2000/svg"
   xmlns:sodipodi="http://sodipodi.sourceforge.net/DTD/sodipodi-0.dtd"
   xmlns:inkscape="http://www.inkscape.org/namespaces/inkscape"
   version="1.1"
   x="0px"
   y="0px"
   viewBox="0 0 200 200"
   xml:space="preserve"
   id="svg8"
   sodipodi:docname="sauna_3.svg"
   width="200"
   height="200"
   inkscape:version="0.92.5 (2060ec1f9f, 2020-04-08)"><metadata
     id="metadata14"><rdf:RDF><cc:Work
         rdf:about=""><dc:format>image/svg+xml</dc:format><dc:type
           rdf:resource="http://purl.org/dc/dcmitype/StillImage" /><dc:title></dc:title></cc:Work></rdf:RDF></metadata><defs
     id="defs12" /><sodipodi:namedview
     pagecolor="#ffffff"
     bordercolor="#666666"
     borderopacity="1"
     objecttolerance="10"
     gridtolerance="10"
     guidetolerance="10"
     inkscape:pageopacity="0"
     inkscape:pageshadow="2"
     inkscape:window-width="1920"
     inkscape:window-height="1027"
     id="namedview10"
     showgrid="false"
     inkscape:zoom="2.6700352"
     inkscape:cx="24.751553"
     inkscape:cy="103.91569"
     inkscape:window-x="-8"
     inkscape:window-y="-8"
     inkscape:window-maximized="1"
     inkscape:current-layer="svg8" /><path
     d="M 146.44857,49.043382 C 134.14037,59.054505 121.43513,73.2703 126.19959,89.48832 111.31064,77.27475 111.11212,36.229143 119.84697,10 70.018613,28.62069 69.224536,67.864294 71.20973,82.080089 66.643783,68.464961 60.291163,62.258065 43.814057,57.85317 51.556312,84.883204 19.793213,110.11123 25.748793,142.7475 30.711778,169.37709 46.990367,183.59288 65.25415,190 53.342986,161.16796 83.517931,150.95662 84.907565,129.93326 c 2.779271,2.80311 7.940775,8.60957 4.367426,20.02225 7.345219,-4.60512 18.660819,-24.82759 13.300799,-38.04227 17.4697,8.0089 42.08611,46.05116 31.7631,74.08231 16.87414,-7.40823 30.57198,-19.22136 36.32904,-34.83871 C 189.72579,98.298109 139.30187,90.689655 146.44857,49.043382 Z"
     id="path2"
     inkscape:connector-curvature="0"
     style="stroke-width:1.99369109" /></svg>