<svg xmlns:dc="http://purl.org/dc/elements/1.1/" xmlns:cc="http://creativecommons.org/ns#" xmlns:rdf="http://www.w3.org/1999/02/22-rdf-syntax-ns#" xmlns:svg="http://www.w3.org/2000/svg" xmlns="http://www.w3.org/2000/svg" xmlns:sodipodi="http://sodipodi.sourceforge.net/DTD/sodipodi-0.dtd" xmlns:inkscape="http://www.inkscape.org/namespaces/inkscape" viewBox="0 0 16.933333 21.1666675" version="1.1" enable-background="new" x="0px" y="0px"><g><path style="color:#000000;font-style:normal;font-variant:normal;font-weight:normal;font-stretch:normal;font-size:medium;line-height:normal;font-family:sans-serif;font-variant-ligatures:normal;font-variant-position:normal;font-variant-caps:normal;font-variant-numeric:normal;font-variant-alternates:normal;font-feature-settings:normal;text-indent:0;text-align:start;text-decoration:none;text-decoration-line:none;text-decoration-style:solid;text-decoration-color:#000000;letter-spacing:normal;word-spacing:normal;text-transform:none;writing-mode:lr-tb;direction:ltr;text-orientation:mixed;dominant-baseline:auto;baseline-shift:baseline;text-anchor:start;white-space:normal;shape-padding:0;clip-rule:nonzero;display:inline;overflow:visible;visibility:visible;opacity:1;isolation:auto;mix-blend-mode:normal;color-interpolation:sRGB;color-interpolation-filters:linearRGB;solid-color:#000000;solid-opacity:1;vector-effect:none;fill:#000000;fill-opacity:1;fill-rule:nonzero;stroke:none;stroke-width:0.52964258;stroke-linecap:round;stroke-linejoin:round;stroke-miterlimit:4;stroke-dasharray:none;stroke-dashoffset:0;stroke-opacity:1;color-rendering:auto;image-rendering:auto;shape-rendering:auto;text-rendering:auto;enable-background:accumulate" d="m 10.330119,2.9915632 a 0.26484781,0.26484781 0 0 0 -0.260964,0.2682007 v 1.0190592 a 0.26484781,0.26484781 0 1 0 0.529683,0 V 3.2597639 A 0.26484781,0.26484781 0 0 0 10.330119,2.9915632 Z M 6.5665244,4.5496076 A 0.26484781,0.26484781 0 0 0 6.3820411,5.0043603 L 7.1179135,5.7402326 A 0.26491998,0.26491998 0 1 0 7.4925661,5.3655784 L 6.7566937,4.6297061 A 0.26484781,0.26484781 0 0 0 6.5665244,4.5496076 Z m 7.4987676,0 a 0.26484781,0.26484781 0 0 0 -0.181901,0.080098 l -0.735872,0.7358723 a 0.26492092,0.26492092 0 1 0 0.374655,0.3746542 L 14.258047,5.0043603 A 0.26484781,0.26484781 0 0 0 14.065292,4.5496076 Z m -3.731037,0.9368936 c -0.9940374,0 -1.9020662,0.4839607 -2.4665177,1.2567708 0.2415805,0.2685053 0.4493736,0.570973 0.6154658,0.9007203 0.1550273,-0.028752 0.3012731,-0.082682 0.4640554,-0.082682 1.2219415,0 2.2470345,0.8455572 2.5714195,1.9931599 0.420476,0.2905699 0.762275,0.6958288 0.971518,1.1735718 0.57577,-0.573557 0.911053,-1.355054 0.911053,-2.1745443 0,-1.6981566 -1.368835,-3.0669962 -3.066994,-3.0669965 z M 4.9841918,5.9676089 c -1.9262963,0 -3.4638694,1.5659047 -3.4638694,3.4633546 0,0.2890266 0.044238,0.5720405 0.1111038,0.8485265 -0.3805608,0.387595 -0.5922116,0.923988 -0.5922116,1.501201 0,1.185757 0.9465548,2.161108 2.1616247,2.161108 h 6.7933833 c 1.2150724,0 2.1900484,-0.970579 2.1900484,-2.161108 0,-0.817545 -0.454482,-1.520952 -1.098642,-1.8965254 -0.188016,-1.0255761 -1.0878477,-1.793689 -2.1383705,-1.793689 -0.2548493,0 -0.5049361,0.048884 -0.7410397,0.1333254 C 7.7165147,6.8773628 6.4188578,5.9676089 4.9841918,5.9676089 Z M 14.60841,8.2889141 a 0.26484781,0.26484781 0 1 0 0,0.5296834 h 1.019062 a 0.26484781,0.26484781 0 1 0 0,-0.5296834 z m -1.276405,3.0261719 a 0.26484781,0.26484781 0 0 0 -0.184486,0.454753 l 0.735872,0.735872 a 0.26492099,0.26492099 0 1 0 0.374656,-0.374654 l -0.735873,-0.735872 a 0.26484781,0.26484781 0 0 0 -0.190169,-0.0801 z"/></g></svg>